<svg width="264" height="217" viewBox="0 0 264 217" fill="none" xmlns="http://www.w3.org/2000/svg" preserveAspectRatio="xMinYMid">
<path d="M-159.5 164.996C-159.5 255.497 -65.4093 328.876 50.7161 328.996C51.2254 328.999 51.7349 329 52.245 329C101.997 329 158.745 306.138 183.745 293.069C266.918 293.005 264.94 232.743 263.1 176.695L263.1 176.692L263.1 176.689C262.971 172.765 262.843 168.861 262.745 165C261.245 108.004 168.501 1 52.245 1C51.8303 0.997276 51.4153 0.995911 51 0.995911C-65.2559 0.995911 -159.5 74.4212 -159.5 164.996Z" fill="url(#paint0_linear)"/>
<path d="M-159.5 164.996C-159.5 255.497 -65.4093 328.876 50.7161 328.996C51.2254 328.999 51.7349 329 52.245 329C101.997 329 158.745 306.138 183.745 293.069C266.918 293.005 264.94 232.743 263.1 176.695L263.1 176.692L263.1 176.689C262.971 172.765 262.843 168.861 262.745 165C261.245 108.004 168.501 1 52.245 1C51.8303 0.997276 51.4153 0.995911 51 0.995911C-65.2559 0.995911 -159.5 74.4212 -159.5 164.996Z" />
<defs>
<linearGradient id="paint0_linear" x1="-112.17" y1="-28.7767" x2="332.919" y2="221.318" gradientUnits="userSpaceOnUse">
<stop offset="0.054838" stop-color="#03045E"/>
<stop offset="0.87113" stop-color="#0077B6" stop-opacity="0.88"/>
</linearGradient>
</defs>
</svg>
