<svg xmlns="http://www.w3.org/2000/svg" viewBox="0 0 1440 320">
          <path
            fill="#F1F1F1"
            fill-opacity="1"
            d="M0,160L40,149.3C80,139,160,117,240,128C320,139,400,181,480,213.3C560,245,640,267,720,266.7C800,267,880,245,960,202.7C1040,160,1120,96,1200,64C1280,32,1360,32,1400,32L1440,32L1440,320L1400,320C1360,320,1280,320,1200,320C1120,320,1040,320,960,320C880,320,800,320,720,320C640,320,560,320,480,320C400,320,320,320,240,320C160,320,80,320,40,320L0,320Z"
          ></path>
        </svg>